<svg xmlns="http://www.w3.org/2000/svg" viewBox="0 0 1200 800" role="img" aria-labelledby="title desc">
  <title id="title">Commercial Video Editor</title>
  <desc id="desc">Abstract gig cover image for video editing work.</desc>
  <defs>
    <linearGradient id="bg" x1="0" y1="0" x2="1" y2="1">
      <stop offset="0%" stop-color="#0F172A" />
      <stop offset="100%" stop-color="#334155" />
    </linearGradient>
    <linearGradient id="accent" x1="0" y1="0" x2="1" y2="1">
      <stop offset="0%" stop-color="#FBBF24" />
      <stop offset="100%" stop-color="#F59E0B" />
    </linearGradient>
  </defs>
  <rect width="1200" height="800" fill="url(#bg)" />
  <circle cx="170" cy="150" r="110" fill="#FBBF24" fill-opacity="0.12" />
  <circle cx="980" cy="620" r="190" fill="#FBBF24" fill-opacity="0.08" />
  <rect x="120" y="170" width="960" height="460" rx="36" fill="#ffffff" fill-opacity="0.08" stroke="#ffffff" stroke-opacity="0.14" />
  <rect x="180" y="240" width="370" height="230" rx="24" fill="#111827" stroke="url(#accent)" stroke-width="4" />
  <rect x="208" y="268" width="314" height="26" rx="13" fill="#FBBF24" fill-opacity="0.8" />
  <rect x="208" y="314" width="240" height="18" rx="9" fill="#ffffff" fill-opacity="0.72" />
  <rect x="208" y="350" width="280" height="18" rx="9" fill="#ffffff" fill-opacity="0.52" />
  <rect x="208" y="386" width="190" height="18" rx="9" fill="#ffffff" fill-opacity="0.38" />
  <rect x="600" y="250" width="420" height="190" rx="24" fill="#ffffff" fill-opacity="0.12" />
  <rect x="640" y="290" width="100" height="100" rx="18" fill="#FBBF24" fill-opacity="0.9" />
  <rect x="760" y="290" width="220" height="24" rx="12" fill="#ffffff" fill-opacity="0.78" />
  <rect x="760" y="332" width="170" height="24" rx="12" fill="#ffffff" fill-opacity="0.52" />
  <rect x="760" y="374" width="260" height="24" rx="12" fill="#ffffff" fill-opacity="0.36" />
  <text x="120" y="720" fill="#ffffff" font-family="Arial, Helvetica, sans-serif" font-size="54" font-weight="700">Commercial Video Editor</text>
</svg>
